<svg width="36" height="44" viewBox="0 0 36 44" fill="none" xmlns="http://www.w3.org/2000/svg">
<path d="M17.1 17.5H29.1C28.425 15.775 27.3938 14.2937 26.0063 13.0562C24.6188 11.8187 23.025 10.95 21.225 10.45L17.1 17.5ZM13.65 20.5L19.65 10.15C19.375 10.1 19.1 10.0625 18.825 10.0375C18.55 10.0125 18.275 10 18 10C16.35 10 14.8125 10.3125 13.3875 10.9375C11.9625 11.5625 10.7 12.4 9.6 13.45L13.65 20.5ZM6.375 25H14.55L8.55 14.65C7.75 15.675 7.125 16.8062 6.675 18.0437C6.225 19.2812 6 20.6 6 22C6 22.525 6.03125 23.0312 6.09375 23.5187C6.15625 24.0062 6.25 24.5 6.375 25ZM14.775 33.55L18.825 26.5H6.9C7.575 28.225 8.60625 29.7062 9.99375 30.9437C11.3813 32.1812 12.975 33.05 14.775 33.55ZM18 34C19.65 34 21.1875 33.6875 22.6125 33.0625C24.0375 32.4375 25.3 31.6 26.4 30.55L22.35 23.5L16.35 33.85C16.625 33.9 16.8938 33.9375 17.1563 33.9625C17.4188 33.9875 17.7 34 18 34ZM27.45 29.35C28.25 28.325 28.875 27.1937 29.325 25.9562C29.775 24.7187 30 23.4 30 22C30 21.475 29.9688 20.9688 29.9063 20.4812C29.8438 19.9937 29.75 19.5 29.625 19H21.45L27.45 29.35ZM18 37C15.95 37 14.0125 36.6062 12.1875 35.8187C10.3625 35.0312 8.76875 33.9562 7.40625 32.5938C6.04375 31.2312 4.96875 29.6375 4.18125 27.8125C3.39375 25.9875 3 24.05 3 22C3 19.925 3.39375 17.9812 4.18125 16.1687C4.96875 14.3562 6.04375 12.7687 7.40625 11.4062C8.76875 10.0437 10.3625 8.96875 12.1875 8.18125C14.0125 7.39375 15.95 7 18 7C20.075 7 22.0188 7.39375 23.8313 8.18125C25.6438 8.96875 27.2313 10.0437 28.5938 11.4062C29.9563 12.7687 31.0313 14.3562 31.8188 16.1687C32.6063 17.9812 33 19.925 33 22C33 24.05 32.6063 25.9875 31.8188 27.8125C31.0313 29.6375 29.9563 31.2312 28.5938 32.5938C27.2313 33.9562 25.6438 35.0312 23.8313 35.8187C22.0188 36.6062 20.075 37 18 37Z" fill="white"/>
</svg>
