<svg width="20" height="24" viewBox="0 0 20 24" fill="none" xmlns="http://www.w3.org/2000/svg">
<path d="M7.50002 13.6666H15.8334L12.9584 9.91658L11.0417 12.4166L9.75002 10.7499L7.50002 13.6666ZM6.66669 16.9999C6.20835 16.9999 5.81599 16.8367 5.4896 16.5103C5.16322 16.1839 5.00002 15.7916 5.00002 15.3333V5.33325C5.00002 4.87492 5.16322 4.48256 5.4896 4.15617C5.81599 3.82978 6.20835 3.66658 6.66669 3.66658H16.6667C17.125 3.66658 17.5174 3.82978 17.8438 4.15617C18.1702 4.48256 18.3334 4.87492 18.3334 5.33325V15.3333C18.3334 15.7916 18.1702 16.1839 17.8438 16.5103C17.5174 16.8367 17.125 16.9999 16.6667 16.9999H6.66669ZM6.66669 15.3333H16.6667V5.33325H6.66669V15.3333ZM3.33335 20.3333C2.87502 20.3333 2.48266 20.1701 2.15627 19.8437C1.82988 19.5173 1.66669 19.1249 1.66669 18.6666V6.99992H3.33335V18.6666H15V20.3333H3.33335Z" fill="white"/>
</svg>
