<svg width="30" height="36" viewBox="0 0 30 36" fill="none" xmlns="http://www.w3.org/2000/svg">
<path d="M6.75 27.5C5.8125 26.5625 5.07812 25.4792 4.54688 24.25C4.01562 23.0208 3.75 21.75 3.75 20.4375C3.75 19.125 4 17.8281 4.5 16.5469C5 15.2656 5.8125 14.0625 6.9375 12.9375C7.66667 12.2083 8.56771 11.5833 9.64062 11.0625C10.7135 10.5417 11.9844 10.1302 13.4531 9.82812C14.9219 9.52604 16.599 9.34375 18.4844 9.28125C20.3698 9.21875 22.4792 9.29167 24.8125 9.5C24.9792 11.7083 25.0312 13.7396 24.9688 15.5938C24.9062 17.4479 24.7344 19.1198 24.4531 20.6094C24.1719 22.099 23.776 23.401 23.2656 24.5156C22.7552 25.6302 22.125 26.5625 21.375 27.3125C20.2708 28.4167 19.099 29.224 17.8594 29.7344C16.6198 30.2448 15.3542 30.5 14.0625 30.5C12.7083 30.5 11.3854 30.2344 10.0938 29.7031C8.80208 29.1719 7.6875 28.4375 6.75 27.5ZM10.25 27C10.8542 27.3542 11.474 27.6094 12.1094 27.7656C12.7448 27.9219 13.3958 28 14.0625 28C15.0208 28 15.9688 27.8073 16.9062 27.4219C17.8438 27.0365 18.7396 26.4167 19.5938 25.5625C19.9688 25.1875 20.349 24.6615 20.7344 23.9844C21.1198 23.3073 21.4531 22.4219 21.7344 21.3281C22.0156 20.2344 22.2292 18.9115 22.375 17.3594C22.5208 15.8073 22.5417 13.9583 22.4375 11.8125C21.4167 11.7708 20.2656 11.7552 18.9844 11.7656C17.7031 11.776 16.4271 11.875 15.1562 12.0625C13.8854 12.25 12.6771 12.5521 11.5312 12.9688C10.3854 13.3854 9.44792 13.9583 8.71875 14.6875C7.78125 15.625 7.13542 16.5521 6.78125 17.4688C6.42708 18.3854 6.25 19.2708 6.25 20.125C6.25 21.3542 6.48438 22.4323 6.95312 23.3594C7.42188 24.2865 7.83333 24.9375 8.1875 25.3125C9.0625 23.6458 10.2188 22.0469 11.6562 20.5156C13.0938 18.9844 14.7708 17.7292 16.6875 16.75C15.1875 18.0625 13.8802 19.5469 12.7656 21.2031C11.651 22.8594 10.8125 24.7917 10.25 27Z" fill="#1B180D"/>
</svg>
