<svg width="20" height="28" viewBox="0 0 20 28" fill="none" xmlns="http://www.w3.org/2000/svg">
<path d="M10 22.3333C8.01391 22.3333 6.25697 21.7083 4.72919 20.4583C3.20141 19.2083 2.23613 17.611 1.83335 15.6666H3.54169C3.93058 17.1388 4.72224 18.3402 5.91669 19.2708C7.11113 20.2013 8.47224 20.6666 10 20.6666C11.1945 20.6666 12.3056 20.3714 13.3334 19.7812C14.3611 19.1909 15.1667 18.3749 15.75 17.3333H13.3334V15.6666H18.3334V20.6666H16.6667V18.9999C15.875 20.0555 14.8959 20.8749 13.7292 21.4583C12.5625 22.0416 11.3195 22.3333 10 22.3333ZM10 16.4999C9.30558 16.4999 8.7153 16.2569 8.22919 15.7708C7.74308 15.2846 7.50002 14.6944 7.50002 13.9999C7.50002 13.3055 7.74308 12.7152 8.22919 12.2291C8.7153 11.743 9.30558 11.4999 10 11.4999C10.6945 11.4999 11.2847 11.743 11.7709 12.2291C12.257 12.7152 12.5 13.3055 12.5 13.9999C12.5 14.6944 12.257 15.2846 11.7709 15.7708C11.2847 16.2569 10.6945 16.4999 10 16.4999ZM1.66669 12.3333V7.33325H3.33335V8.99992C4.12502 7.94436 5.10419 7.12492 6.27085 6.54158C7.43752 5.95825 8.68058 5.66658 10 5.66658C11.9861 5.66658 13.7431 6.29158 15.2709 7.54158C16.7986 8.79158 17.7639 10.3888 18.1667 12.3333H16.4584C16.0695 10.861 15.2778 9.65964 14.0834 8.72908C12.8889 7.79853 11.5278 7.33325 10 7.33325C8.80558 7.33325 7.69447 7.62839 6.66669 8.21867C5.63891 8.80894 4.83335 9.62492 4.25002 10.6666H6.66669V12.3333H1.66669Z" fill="white"/>
</svg>
