<svg width="256" height="256" viewBox="0 0 256 256" fill="none" xmlns="http://www.w3.org/2000/svg">
<rect width="256" height="256" rx="128" fill="#4CAF50" fill-opacity="0.2"/>
<rect x="19.2" y="19.2" width="217.59" height="217.59" rx="108.795" fill="#4CAF50" fill-opacity="0.1"/>
<g clip-path="url(#clip0_36_226)">
<rect x="32" y="32" width="192" height="192" rx="96" fill="#4CAF50"/>
<rect x="36.36" y="38.3799" width="24" height="192" transform="rotate(-15 36.36 38.3799)" fill="#14532D" fill-opacity="0.4"/>
<rect x="100.49" y="33.76" width="32" height="192" transform="rotate(-5 100.49 33.76)" fill="#14532D" fill-opacity="0.4"/>
<rect x="173.65" y="31.3701" width="24" height="192" transform="rotate(9.99999 173.65 31.3701)" fill="#14532D" fill-opacity="0.4"/>
<path d="M111.762 133.374L125.443 95.7857C125.831 94.7207 126.516 93.9591 127.499 93.5008C128.481 93.0426 129.505 93.0073 130.57 93.3949C131.635 93.7826 132.397 94.4677 132.855 95.4504C133.313 96.433 133.348 97.4569 132.961 98.5219L119.28 136.11L111.762 133.374ZM96.7267 127.902L109.04 94.0721C109.427 93.0071 110.112 92.2455 111.095 91.7873C112.078 91.329 113.102 91.2937 114.167 91.6814C115.232 92.069 115.993 92.7541 116.451 93.7368C116.91 94.7195 116.945 95.7433 116.557 96.8083L104.244 130.638L96.7267 127.902ZM98.5923 175.405C89.6964 172.167 83.2761 166.319 79.3314 157.859C75.3867 149.4 75.0333 140.722 78.2711 131.826L91.2681 96.1174C91.6557 95.0523 92.3409 94.2907 93.3235 93.8325C94.3062 93.3743 95.33 93.339 96.395 93.7266C97.46 94.1142 98.2216 94.7994 98.6799 95.7821C99.1381 96.7647 99.1734 97.7886 98.7858 98.8536L85.7888 134.562C83.3034 141.391 83.5649 148.031 86.5732 154.482C89.5815 160.934 94.5 165.402 101.329 167.888C108.157 170.373 114.797 170.111 121.248 167.103C127.7 164.095 132.168 159.176 134.654 152.348L139.442 139.192C138.377 138.804 137.353 138.84 136.37 139.298C135.388 139.756 134.703 140.518 134.315 141.583L128.843 156.618L117.566 152.514C115.499 151.761 113.461 151.853 111.453 152.79C109.445 153.726 108.065 155.228 107.312 157.295L105.944 161.054L98.4265 158.318L99.7946 154.559C101.3 150.424 104.06 147.42 108.076 145.548C112.092 143.675 116.168 143.491 120.302 144.996L124.061 146.364L127.96 135.651L137.742 108.776C138.13 107.711 138.815 106.949 139.798 106.491C140.78 106.033 141.804 105.997 142.869 106.385C143.934 106.773 144.696 107.458 145.154 108.44C145.612 109.423 145.648 110.447 145.26 111.512L138.18 130.964C138.875 131.004 139.543 131.07 140.183 131.161C140.824 131.252 141.489 131.423 142.178 131.674L149.696 134.41L142.171 155.084C138.933 163.98 133.085 170.4 124.625 174.345C116.166 178.29 107.488 178.643 98.5923 175.405Z" fill="white"/>
</g>
<defs>
<clipPath id="clip0_36_226">
<rect x="32" y="32" width="192" height="192" rx="96" fill="white"/>
</clipPath>
</defs>
</svg>
