<svg width="358" height="192" viewBox="0 0 358 192" fill="none" xmlns="http://www.w3.org/2000/svg">
<rect width="358" height="192" rx="32" fill="black" fill-opacity="0.2"/>
<rect x="16" y="91.2051" width="4" height="9.59" rx="2" fill="#4CAF50" fill-opacity="0.2"/>
<rect x="24.9375" y="86.405" width="4" height="19.19" rx="2" fill="#4CAF50" fill-opacity="0.3"/>
<rect x="33.875" y="81.6001" width="4" height="28.8" rx="2" fill="#4CAF50" fill-opacity="0.4"/>
<rect x="42.8125" y="88.8049" width="4" height="14.39" rx="2" fill="#4CAF50" fill-opacity="0.2"/>
<rect x="51.75" y="76.8049" width="4" height="38.39" rx="2" fill="#4CAF50" fill-opacity="0.5"/>
<rect x="60.6875" y="67.2051" width="4" height="57.59" rx="2" fill="#4CAF50" fill-opacity="0.6"/>
<rect x="69.625" y="84" width="4" height="24" rx="2" fill="#4CAF50" fill-opacity="0.3"/>
<rect x="78.5625" y="60" width="4" height="72" rx="2" fill="#4CAF50" fill-opacity="0.7"/>
<rect x="87.5" y="52.8049" width="4" height="86.39" rx="2" fill="#4CAF50" fill-opacity="0.8"/>
<rect x="96.4375" y="48" width="4" height="96" rx="2" fill="#4CAF50"/>
<rect x="105.375" y="52.8049" width="4" height="86.39" rx="2" fill="#4CAF50" fill-opacity="0.8"/>
<rect x="114.312" y="60" width="4" height="72" rx="2" fill="#4CAF50" fill-opacity="0.7"/>
<rect x="123.25" y="84" width="4" height="24" rx="2" fill="#4CAF50" fill-opacity="0.3"/>
<rect x="132.188" y="67.2051" width="4" height="57.59" rx="2" fill="#4CAF50" fill-opacity="0.6"/>
<rect x="141.125" y="76.8049" width="4" height="38.39" rx="2" fill="#4CAF50" fill-opacity="0.5"/>
<rect x="150.062" y="88.8049" width="4" height="14.39" rx="2" fill="#4CAF50" fill-opacity="0.2"/>
<rect x="159" y="81.6001" width="4" height="28.8" rx="2" fill="#4CAF50" fill-opacity="0.4"/>
<rect x="167.938" y="86.405" width="4" height="19.19" rx="2" fill="#4CAF50" fill-opacity="0.3"/>
<rect x="176.875" y="91.2051" width="4" height="9.59" rx="2" fill="#4CAF50" fill-opacity="0.2"/>
<rect x="185.812" y="86.405" width="4" height="19.19" rx="2" fill="#4CAF50" fill-opacity="0.3"/>
<rect x="194.75" y="81.6001" width="4" height="28.8" rx="2" fill="#4CAF50" fill-opacity="0.4"/>
<rect x="203.688" y="88.8049" width="4" height="14.39" rx="2" fill="#4CAF50" fill-opacity="0.2"/>
<rect x="212.625" y="76.8049" width="4" height="38.39" rx="2" fill="#4CAF50" fill-opacity="0.5"/>
<rect x="221.562" y="67.2051" width="4" height="57.59" rx="2" fill="#4CAF50" fill-opacity="0.6"/>
<rect x="230.5" y="84" width="4" height="24" rx="2" fill="#4CAF50" fill-opacity="0.3"/>
<rect x="239.438" y="60" width="4" height="72" rx="2" fill="#4CAF50" fill-opacity="0.7"/>
<rect x="248.375" y="52.8049" width="4" height="86.39" rx="2" fill="#4CAF50" fill-opacity="0.8"/>
<rect x="257.312" y="48" width="4" height="96" rx="2" fill="#4CAF50"/>
<rect x="266.25" y="52.8049" width="4" height="86.39" rx="2" fill="#4CAF50" fill-opacity="0.8"/>
<rect x="275.188" y="60" width="4" height="72" rx="2" fill="#4CAF50" fill-opacity="0.7"/>
<rect x="284.125" y="84" width="4" height="24" rx="2" fill="#4CAF50" fill-opacity="0.3"/>
<rect x="293.062" y="67.2051" width="4" height="57.59" rx="2" fill="#4CAF50" fill-opacity="0.6"/>
<rect x="302" y="76.8049" width="4" height="38.39" rx="2" fill="#4CAF50" fill-opacity="0.5"/>
<rect x="310.938" y="88.8049" width="4" height="14.39" rx="2" fill="#4CAF50" fill-opacity="0.2"/>
<rect x="319.875" y="81.6001" width="4" height="28.8" rx="2" fill="#4CAF50" fill-opacity="0.4"/>
<rect x="328.812" y="86.405" width="4" height="19.19" rx="2" fill="#4CAF50" fill-opacity="0.3"/>
<rect x="337.75" y="91.2051" width="4" height="9.59" rx="2" fill="#4CAF50" fill-opacity="0.2"/>
</svg>
